HIERARCHY
ROOT Hips
{
 OFFSET 0.000000 0.000000 0.000000
 CHANNELS 6 Xposition Yposition Zposition Yrotation Xrotation Zrotation
 JOINT Chest
 {
  OFFSET 0.000000 10.383400 0.001500
  CHANNELS 3 Yrotation Xrotation Zrotation
  JOINT Chest2
  {
   OFFSET 0.000000 10.418200 -0.003100
   CHANNELS 3 Yrotation Xrotation Zrotation
   JOINT Chest3
   {
    OFFSET 0.000000 10.375100 0.000000
    CHANNELS 3 Yrotation Xrotation Zrotation
    JOINT Chest4
    {
     OFFSET 0.000000 10.364600 0.000000
     CHANNELS 3 Yrotation Xrotation Zrotation
     JOINT Neck
     {
      OFFSET 0.000000 15.642200 0.000000
      CHANNELS 3 Yrotation Xrotation Zrotation
      JOINT Head
      {
       OFFSET 0.000000 9.697300 -0.006500
       CHANNELS 3 Yrotation Xrotation Zrotation
       End Site
       {
        OFFSET 0.000000 18.492200 -0.003400
       }
      }
     }
     JOINT RightCollar
     {
      OFFSET -3.166800 10.349300 0.000000
      CHANNELS 3 Yrotation Xrotation Zrotation
      JOINT RightShoulder
      {
       OFFSET -14.729700 0.000000 0.000000
       CHANNELS 3 Yrotation Xrotation Zrotation
       JOINT RightElbow
       {
        OFFSET 0.000000 -32.224300 0.000000
        CHANNELS 3 Yrotation Xrotation Zrotation
        JOINT RightWrist
        {
         OFFSET 0.000000 -26.084100 0.000000
         CHANNELS 3 Yrotation Xrotation Zrotation
         End Site
         {
          OFFSET 0.000000 -19.319400 0.000000
         }
        }
       }
      }
     }
     JOINT LeftCollar
     {
      OFFSET 3.166800 10.349300 0.000000
      CHANNELS 3 Yrotation Xrotation Zrotation
      JOINT LeftShoulder
      {
       OFFSET 14.729700 0.000000 0.000000
       CHANNELS 3 Yrotation Xrotation Zrotation
       JOINT LeftElbow
       {
        OFFSET 0.000000 -32.224300 0.000000
        CHANNELS 3 Yrotation Xrotation Zrotation
        JOINT LeftWrist
        {
         OFFSET 0.000000 -26.084100 0.000000
         CHANNELS 3 Yrotation Xrotation Zrotation
         End Site
         {
          OFFSET 0.000000 -19.319400 0.000000
         }
        }
       }
      }
     }
    }
   }
  }
 }
 JOINT RightHip
 {
  OFFSET -8.428900 -0.007500 -0.000800
  CHANNELS 3 Yrotation Xrotation Zrotation
  JOINT RightKnee
  {
   OFFSET 0.000000 -43.834600 0.000700
   CHANNELS 3 Yrotation Xrotation Zrotation
   JOINT RightAnkle
   {
    OFFSET 0.000000 -42.757000 0.001200
    CHANNELS 3 Yrotation Xrotation Zrotation
    JOINT RightToe
    {
     OFFSET 0.000000 -6.946900 15.649300
     CHANNELS 3 Yrotation Xrotation Zrotation
     End Site
     {
      OFFSET 0.000000 -1.580800 6.825800
     }
    }
   }
  }
 }
 JOINT LeftHip
 {
  OFFSET 8.428900 -0.007500 -0.000800
  CHANNELS 3 Yrotation Xrotation Zrotation
  JOINT LeftKnee
  {
   OFFSET 0.000000 -43.834600 0.000700
   CHANNELS 3 Yrotation Xrotation Zrotation
   JOINT LeftAnkle
   {
    OFFSET 0.000000 -42.757000 0.001200
    CHANNELS 3 Yrotation Xrotation Zrotation
    JOINT LeftToe
    {
     OFFSET 0.000000 -6.946900 15.649300
     CHANNELS 3 Yrotation Xrotation Zrotation
     End Site
     {
      OFFSET 0.000000 -1.580800 6.825800
     }
    }
   }
  }
 }
}
MOTION
Frames: 12
Frame Time: 0.008333
0.318700 125.447572 -8.354202 177.577532 -6.964132 1.323290 2.874813 10.449543 -1.851492 0.200523 0.690078 -0.138564 0.319874 1.197505 -0.226947 2.662477 9.619072 -1.725509 -7.267998 15.131329 4.646527 -9.113116 -9.437789 6.842027 6.750531 -18.974336 -2.108549 46.041485 -36.975487 -22.444999 -90.748817 -55.835249 144.006239 -1.642230 -4.220966 -34.249178 -1.758245 -10.413963 7.494579 0.071598 -9.555155 0.781154 -31.940175 -47.881027 1.484525 -10.328364 -20.874894 21.624679 11.015228 -61.406780 -6.586211 -134.123160 83.271621 -131.281414 -0.055490 -17.368624 4.355580 0.002115 -0.002892 0.000939 3.218469 -61.359258 -11.570474 95.467917 81.495966 99.944595 8.857072 -17.839875 -10.563575 0.006596 0.008304 0.002929
0.322181 125.448990 -8.353659 177.564956 -6.982758 1.323654 2.838994 10.475257 -1.841238 0.225599 0.689127 -0.145034 0.321984 1.197290 -0.231358 2.665780 9.625378 -1.726297 -7.279410 15.209488 4.656901 -9.095230 -9.410701 6.842630 6.740392 -18.947685 -2.097572 46.063487 -36.990558 -22.471920 -90.746893 -55.819182 144.007101 -1.652043 -4.209667 -34.244310 -1.767857 -10.410930 7.491991 0.079052 -9.559762 0.792301 -31.924095 -47.901676 1.457238 -10.353357 -20.846254 21.630156 10.925187 -61.386253 -6.524079 -134.145685 83.278858 -131.300761 -0.031934 -17.388187 4.309432 0.011218 -0.001078 0.004980 3.185609 -61.349149 -11.540742 95.562693 81.503121 100.038592 8.879671 -17.838563 -10.578441 0.010696 0.009618 0.004749
0.322682 125.450356 -8.353457 177.550562 -7.000530 1.338569 2.831876 10.496755 -1.854016 0.205032 0.694449 -0.139632 0.353634 1.190778 -0.238548 2.594278 9.676556 -1.721634 -7.232765 15.217512 4.659991 -9.085448 -9.369711 6.852657 6.810540 -18.990361 -2.116100 46.041526 -36.995367 -22.466521 -90.704849 -55.797307 143.986015 -1.665885 -4.202612 -34.243290 -1.713906 -10.455528 7.475638 0.054604 -9.570060 0.808689 -31.869257 -47.909866 1.424601 -10.370885 -20.815743 21.639793 10.864567 -61.361478 -6.483278 -134.148346 83.291074 -131.328549 -0.021359 -17.427179 4.318970 0.008525 -0.005575 0.003784 3.202492 -61.335824 -11.552495 95.614003 81.503547 100.085745 8.870943 -17.829079 -10.572748 0.007537 0.013154 0.003346
0.322888 125.451739 -8.354514 177.535733 -7.023213 1.352722 2.837966 10.521553 -1.865910 0.198928 0.696914 -0.139163 0.340862 1.198407 -0.237880 2.581676 9.691176 -1.729517 -7.221675 15.250055 4.679756 -9.066046 -9.379504 6.852005 6.823560 -18.996395 -2.106244 46.031838 -37.005358 -22.476670 -90.612716 -55.757532 143.924165 -1.662953 -4.201390 -34.251326 -1.699040 -10.476431 7.474320 0.026802 -9.582765 0.820025 -31.797066 -47.912989 1.373133 -10.386191 -20.772493 21.651880 10.808025 -61.335475 -6.439758 -134.164657 83.302073 -131.376516 -0.009022 -17.444816 4.322661 0.000571 -0.006500 0.000253 3.218079 -61.316965 -11.562538 95.668434 81.503166 100.135031 8.872261 -17.823924 -10.574710 0.005367 0.012399 0.002383
0.325119 125.452620 -8.352891 177.535580 -7.029733 1.350155 2.816599 10.529809 -1.864577 0.197876 0.699082 -0.139717 0.339211 1.201940 -0.238856 2.574743 9.708410 -1.742651 -7.211149 15.277317 4.707362 -9.049984 -9.384786 6.853339 6.834996 -19.000106 -2.091498 46.019083 -37.014145 -22.494400 -90.538496 -55.731879 143.876363 -1.679366 -4.213014 -34.277629 -1.687191 -10.502748 7.477976 -0.003900 -9.591500 0.827370 -31.701168 -47.905775 1.311761 -10.404565 -20.747587 21.647336 10.641126 -61.328632 -6.306558 -134.100541 83.309182 -131.366447 0.009617 -17.460791 4.305124 -0.002497 -0.002231 -0.001109 3.180773 -61.321481 -11.534831 95.772597 81.497605 100.239005 8.875484 -17.820893 -10.592690 0.008481 0.008339 0.003765
0.325241 125.453588 -8.352607 177.537891 -7.041161 1.355965 2.799296 10.547217 -1.873654 0.197284 0.701368 -0.140697 0.338147 1.205713 -0.240226 2.576851 9.708335 -1.747480 -7.213861 15.308516 4.732634 -9.063843 -9.296096 6.919851 6.805777 -18.972276 -2.082134 46.043415 -37.045081 -22.522155 -90.501385 -55.727344 143.848955 -1.705444 -4.221023 -34.303630 -1.682864 -10.517238 7.481403 -0.040211 -9.600075 0.826333 -31.507485 -47.873651 1.166711 -10.407661 -20.723815 21.667167 10.568258 -61.318477 -6.254255 -134.153184 83.309011 -131.429791 0.010745 -17.475470 4.282145 0.003962 -0.001918 0.001759 3.164706 -61.320233 -11.527320 95.849947 81.493523 100.308663 8.863148 -17.806860 -10.592571 0.003282 0.005177 0.001457
0.325000 125.454363 -8.351204 177.543220 -7.044331 1.359991 2.773558 10.565166 -1.894155 0.195973 0.703892 -0.141850 0.348954 1.197482 -0.235195 2.575636 9.708766 -1.748399 -7.214577 15.333295 4.760996 -9.061587 -9.262146 6.964862 6.791602 -18.969639 -2.080446 46.057196 -37.062372 -22.524765 -90.495948 -55.738122 143.840069 -1.743424 -4.207480 -34.375753 -1.679239 -10.531603 7.486894 -0.069980 -9.605938 0.818675 -31.396813 -47.842855 1.104285 -10.408090 -20.719111 21.683282 10.499225 -61.318177 -6.196701 -134.117411 83.305065 -131.424376 0.014733 -17.487958 4.287817 0.002757 -0.005442 0.001224 3.164943 -61.323140 -11.535523 95.900852 81.490738 100.360233 8.864535 -17.793294 -10.593758 0.001511 0.002603 0.000671
0.325784 125.455079 -8.349671 177.545139 -7.045206 1.355949 2.761683 10.572871 -1.895700 0.195382 0.704568 -0.142079 0.348248 1.202117 -0.239861 2.530051 9.734955 -1.758616 -7.168337 15.322746 4.797943 -9.047700 -9.250754 6.989962 6.833244 -19.005690 -2.079495 46.015355 -37.069863 -22.515565 -90.484157 -55.720697 143.868839 -1.744017 -4.202020 -34.405853 -1.658401 -10.584584 7.520302 -0.058367 -9.596589 0.790705 -31.308650 -47.812897 1.052077 -10.407318 -20.714863 21.700121 10.426279 -61.323757 -6.124746 -134.108333 83.298620 -131.438378 0.011328 -17.491930 4.281625 0.004303 -0.006908 0.001910 3.158857 -61.328121 -11.532302 95.963872 81.474468 100.426275 8.863398 -17.778968 -10.590537 0.001514 0.001311 0.000672
0.325976 125.455708 -8.347557 177.542153 -7.041387 1.353364 2.761199 10.571351 -1.894474 0.195155 0.704764 -0.142130 0.334191 1.211724 -0.242931 2.511281 9.734587 -1.754072 -7.146368 15.332330 4.817968 -9.027653 -9.240596 7.006488 6.857368 -19.013853 -2.092305 45.940525 -37.079807 -22.492370 -90.467344 -55.716913 143.894841 -1.754344 -4.217291 -34.414498 -1.632212 -10.603738 7.524605 -0.053035 -9.591749 0.777563 -31.249601 -47.788933 1.010148 -10.404763 -20.709106 21.713055 10.368680 -61.335410 -6.061238 -134.030141 83.286155 -131.381471 0.014584 -17.489604 4.276866 0.006550 -0.008783 0.002907 3.185747 -61.338115 -11.560450 96.012194 81.463581 100.487927 8.882126 -17.739924 -10.553725 0.003473 0.004065 0.001542
0.326245 125.456629 -8.347932 177.530145 -7.050596 1.350400 2.750951 10.585102 -1.893454 0.194013 0.705431 -0.142015 0.307608 1.212738 -0.238311 2.520515 9.733496 -1.753727 -7.117055 15.333999 4.818279 -9.012449 -9.220872 7.030520 6.870122 -19.013102 -2.109651 45.927978 -37.098054 -22.478978 -90.519985 -55.751197 143.916235 -1.802219 -4.232969 -34.412031 -1.595351 -10.613022 7.514890 -0.063682 -9.596988 0.755286 -31.217584 -47.749836 1.003060 -10.411676 -20.715937 21.723245 10.324011 -61.334061 -5.999263 -134.004183 83.271502 -131.378631 0.021031 -17.488486 4.287327 0.005936 -0.009243 0.002635 3.194735 -61.331637 -11.557323 96.074223 81.456289 100.551059 8.880969 -17.705695 -10.528306 0.003732 0.011405 0.001657
0.326522 125.457340 -8.346991 177.525375 -7.052638 1.345154 2.734928 10.585387 -1.888950 0.168584 0.708088 -0.135410 0.334906 1.211627 -0.243834 2.518998 9.734690 -1.753681 -7.104741 15.339001 4.823569 -9.000612 -9.216514 7.034931 6.833124 -19.007338 -2.104725 45.954783 -37.113723 -22.475017 -90.518734 -55.749008 143.925492 -1.800786 -4.240924 -34.463054 -1.583292 -10.625973 7.519860 -0.065008 -9.585577 0.725101 -31.210876 -47.717260 1.013563 -10.410521 -20.721821 21.734907 10.291977 -61.337935 -5.956362 -133.973082 83.257421 -131.359364 0.028655 -17.488057 4.289139 0.004365 -0.009187 0.001937 3.212099 -61.334850 -11.568559 96.134300 81.444559 100.622811 8.881709 -17.685192 -10.518104 0.005370 0.008669 0.002384
0.325941 125.458016 -8.346182 177.520144 -7.055712 1.344187 2.716705 10.589163 -1.886670 0.179633 0.708487 -0.136652 0.340317 1.210244 -0.245957 2.504536 9.736650 -1.748985 -7.099053 15.350236 4.843378 -8.979312 -9.222885 7.021776 6.823061 -19.005135 -2.101161 45.978558 -37.116867 -22.479558 -90.545456 -55.744529 143.928889 -1.808665 -4.240034 -34.510713 -1.600465 -10.646872 7.538431 -0.050861 -9.560864 0.692579 -31.197897 -47.689240 1.028347 -10.406494 -20.685736 21.751488 10.286633 -61.337355 -5.941291 -133.983678 83.248084 -131.375043 0.034165 -17.493092 4.292393 -0.000096 -0.008187 -0.000043 3.259071 -61.329037 -11.616133 96.154230 81.431618 100.668902 8.891572 -17.675463 -10.521004 0.002774 0.007261 0.001232
